P3
3 3
255
# black
0
0
0
# red
255
0
0
# purple
170
0
255
# white
255
255
255
# blue
0
0
255
# red
255
0
0
# green
0
255
0
# yellow
255
250
50
# cyan
50
255
255